<mxfile host="app.diagrams.net" agent="Mozilla/5.0 (Windows NT 10.0; Win64; x64) AppleWebKit/537.36 (KHTML, like Gecko) Chrome/110.0.0.0 Safari/537.36" version="24.7.7">
  <diagram name="PÃ¡gina-1" id="badeSgl3rarpciUWfAk7">
    <mxGraphModel dx="2084" dy="1815" grid="1" gridSize="10" guides="1" tooltips="1" connect="1" arrows="1" fold="1" page="1" pageScale="1" pageWidth="827" pageHeight="1169" math="0" shadow="0">
      <root>
        <mxCell id="0" />
        <mxCell id="1" parent="0" />
        <mxCell id="xeF10_SFYfUYEAMAfc9h-17" value="" style="rounded=0;whiteSpace=wrap;html=1;" vertex="1" parent="1">
          <mxGeometry x="-795.75" y="-910" width="795.75" height="270" as="geometry" />
        </mxCell>
        <mxCell id="xeF10_SFYfUYEAMAfc9h-7" value="" style="rounded=0;whiteSpace=wrap;html=1;" vertex="1" parent="1">
          <mxGeometry x="-794" y="-1100" width="674" height="170" as="geometry" />
        </mxCell>
        <mxCell id="xeF10_SFYfUYEAMAfc9h-8" value="Presentacion" style="text;html=1;align=center;verticalAlign=middle;whiteSpace=wrap;rounded=0;" vertex="1" parent="1">
          <mxGeometry x="-429.5" y="-1090" width="60" height="30" as="geometry" />
        </mxCell>
        <mxCell id="xeF10_SFYfUYEAMAfc9h-11" value="Telefono Usuario&lt;div&gt;App&lt;/div&gt;" style="rounded=1;whiteSpace=wrap;html=1;" vertex="1" parent="1">
          <mxGeometry x="-503" y="-1040" width="90" height="60" as="geometry" />
        </mxCell>
        <mxCell id="xeF10_SFYfUYEAMAfc9h-13" value="Aplicacion Web Cliente" style="rounded=1;whiteSpace=wrap;html=1;" vertex="1" parent="1">
          <mxGeometry x="-262.5" y="-1040" width="95" height="60" as="geometry" />
        </mxCell>
        <mxCell id="xeF10_SFYfUYEAMAfc9h-14" value="Aplicacion Web Agente" style="rounded=1;whiteSpace=wrap;html=1;" vertex="1" parent="1">
          <mxGeometry x="-386" y="-1040" width="100" height="60" as="geometry" />
        </mxCell>
        <mxCell id="xeF10_SFYfUYEAMAfc9h-15" value="Aplicacion Web Usuario" style="rounded=1;whiteSpace=wrap;html=1;" vertex="1" parent="1">
          <mxGeometry x="-630" y="-1040" width="100" height="60" as="geometry" />
        </mxCell>
        <mxCell id="xeF10_SFYfUYEAMAfc9h-16" value="Correo del Usaurio" style="rounded=1;whiteSpace=wrap;html=1;" vertex="1" parent="1">
          <mxGeometry x="-755" y="-1040" width="100" height="60" as="geometry" />
        </mxCell>
        <mxCell id="xeF10_SFYfUYEAMAfc9h-18" value="Gestor de Lalamadas" style="rounded=1;whiteSpace=wrap;html=1;" vertex="1" parent="1">
          <mxGeometry x="-502" y="-850" width="90" height="60" as="geometry" />
        </mxCell>
        <mxCell id="xeF10_SFYfUYEAMAfc9h-19" value="ChatBot" style="rounded=1;whiteSpace=wrap;html=1;" vertex="1" parent="1">
          <mxGeometry x="-627.5" y="-850" width="95" height="60" as="geometry" />
        </mxCell>
        <mxCell id="xeF10_SFYfUYEAMAfc9h-23" value="Correo Interno" style="rounded=1;whiteSpace=wrap;html=1;" vertex="1" parent="1">
          <mxGeometry x="-750" y="-850" width="90" height="60" as="geometry" />
        </mxCell>
        <mxCell id="xeF10_SFYfUYEAMAfc9h-25" value="" style="endArrow=classic;html=1;rounded=0;entryX=0.5;entryY=0;entryDx=0;entryDy=0;exitX=0.5;exitY=1;exitDx=0;exitDy=0;startArrow=classic;startFill=1;" edge="1" parent="1" source="xeF10_SFYfUYEAMAfc9h-11" target="xeF10_SFYfUYEAMAfc9h-18">
          <mxGeometry width="50" height="50" relative="1" as="geometry">
            <mxPoint x="-340" y="-830" as="sourcePoint" />
            <mxPoint x="-290" y="-880" as="targetPoint" />
          </mxGeometry>
        </mxCell>
        <mxCell id="xeF10_SFYfUYEAMAfc9h-26" value="" style="endArrow=classic;html=1;rounded=0;entryX=0.5;entryY=0;entryDx=0;entryDy=0;exitX=0.5;exitY=1;exitDx=0;exitDy=0;" edge="1" parent="1" source="xeF10_SFYfUYEAMAfc9h-11" target="xeF10_SFYfUYEAMAfc9h-19">
          <mxGeometry width="50" height="50" relative="1" as="geometry">
            <mxPoint x="-360" y="-690" as="sourcePoint" />
            <mxPoint x="-310" y="-740" as="targetPoint" />
          </mxGeometry>
        </mxCell>
        <mxCell id="xeF10_SFYfUYEAMAfc9h-27" value="" style="endArrow=classic;html=1;rounded=0;entryX=0.5;entryY=0;entryDx=0;entryDy=0;exitX=0.5;exitY=1;exitDx=0;exitDy=0;" edge="1" parent="1" source="xeF10_SFYfUYEAMAfc9h-15" target="xeF10_SFYfUYEAMAfc9h-19">
          <mxGeometry width="50" height="50" relative="1" as="geometry">
            <mxPoint x="-570" y="-860" as="sourcePoint" />
            <mxPoint x="-520" y="-910" as="targetPoint" />
          </mxGeometry>
        </mxCell>
        <mxCell id="xeF10_SFYfUYEAMAfc9h-28" value="" style="endArrow=classic;html=1;rounded=0;entryX=0.5;entryY=0;entryDx=0;entryDy=0;startArrow=classic;startFill=1;" edge="1" parent="1" source="xeF10_SFYfUYEAMAfc9h-16" target="xeF10_SFYfUYEAMAfc9h-23">
          <mxGeometry width="50" height="50" relative="1" as="geometry">
            <mxPoint x="-720" y="-830" as="sourcePoint" />
            <mxPoint x="-670" y="-880" as="targetPoint" />
          </mxGeometry>
        </mxCell>
        <mxCell id="xeF10_SFYfUYEAMAfc9h-29" value="Agente de Correos" style="rounded=1;whiteSpace=wrap;html=1;" vertex="1" parent="1">
          <mxGeometry x="-750" y="-730" width="90" height="60" as="geometry" />
        </mxCell>
        <mxCell id="xeF10_SFYfUYEAMAfc9h-30" value="" style="endArrow=classic;html=1;rounded=0;entryX=0.5;entryY=1;entryDx=0;entryDy=0;exitX=0.5;exitY=0;exitDx=0;exitDy=0;" edge="1" parent="1" source="xeF10_SFYfUYEAMAfc9h-29" target="xeF10_SFYfUYEAMAfc9h-23">
          <mxGeometry width="50" height="50" relative="1" as="geometry">
            <mxPoint x="-360" y="-690" as="sourcePoint" />
            <mxPoint x="-310" y="-740" as="targetPoint" />
          </mxGeometry>
        </mxCell>
        <mxCell id="xeF10_SFYfUYEAMAfc9h-31" value="Motor 350" style="rounded=1;whiteSpace=wrap;html=1;" vertex="1" parent="1">
          <mxGeometry x="-380.5" y="-850" width="96" height="60" as="geometry" />
        </mxCell>
        <mxCell id="xeF10_SFYfUYEAMAfc9h-32" value="" style="endArrow=classic;html=1;rounded=0;entryX=0.5;entryY=0;entryDx=0;entryDy=0;exitX=0.5;exitY=1;exitDx=0;exitDy=0;" edge="1" parent="1" source="xeF10_SFYfUYEAMAfc9h-14" target="xeF10_SFYfUYEAMAfc9h-31">
          <mxGeometry width="50" height="50" relative="1" as="geometry">
            <mxPoint x="-240" y="-860" as="sourcePoint" />
            <mxPoint x="-190" y="-910" as="targetPoint" />
          </mxGeometry>
        </mxCell>
        <mxCell id="xeF10_SFYfUYEAMAfc9h-33" value="" style="endArrow=classic;html=1;rounded=0;entryX=0;entryY=0.5;entryDx=0;entryDy=0;exitX=1;exitY=0.5;exitDx=0;exitDy=0;" edge="1" parent="1" source="xeF10_SFYfUYEAMAfc9h-18" target="xeF10_SFYfUYEAMAfc9h-31">
          <mxGeometry width="50" height="50" relative="1" as="geometry">
            <mxPoint x="-330" y="-820" as="sourcePoint" />
            <mxPoint x="-280" y="-870" as="targetPoint" />
          </mxGeometry>
        </mxCell>
        <mxCell id="xeF10_SFYfUYEAMAfc9h-35" value="Modulo&amp;nbsp;&lt;div&gt;Gestion de Clientes&lt;/div&gt;" style="rounded=1;whiteSpace=wrap;html=1;" vertex="1" parent="1">
          <mxGeometry x="-296" y="-730" width="96" height="60" as="geometry" />
        </mxCell>
        <mxCell id="xeF10_SFYfUYEAMAfc9h-39" value="" style="endArrow=classic;html=1;rounded=0;exitX=0.5;exitY=1;exitDx=0;exitDy=0;entryX=0.25;entryY=0;entryDx=0;entryDy=0;" edge="1" parent="1" source="xeF10_SFYfUYEAMAfc9h-31" target="xeF10_SFYfUYEAMAfc9h-35">
          <mxGeometry width="50" height="50" relative="1" as="geometry">
            <mxPoint x="-130" y="-700" as="sourcePoint" />
            <mxPoint x="-80" y="-750" as="targetPoint" />
          </mxGeometry>
        </mxCell>
        <mxCell id="xeF10_SFYfUYEAMAfc9h-40" value="Sistema Experto" style="rounded=1;whiteSpace=wrap;html=1;" vertex="1" parent="1">
          <mxGeometry x="-517" y="-730" width="120" height="60" as="geometry" />
        </mxCell>
        <mxCell id="xeF10_SFYfUYEAMAfc9h-42" value="" style="endArrow=classic;html=1;rounded=0;entryX=0.5;entryY=0;entryDx=0;entryDy=0;exitX=0.5;exitY=1;exitDx=0;exitDy=0;" edge="1" parent="1" source="xeF10_SFYfUYEAMAfc9h-19" target="xeF10_SFYfUYEAMAfc9h-40">
          <mxGeometry width="50" height="50" relative="1" as="geometry">
            <mxPoint x="-610" y="-650" as="sourcePoint" />
            <mxPoint x="-560" y="-700" as="targetPoint" />
          </mxGeometry>
        </mxCell>
        <mxCell id="xeF10_SFYfUYEAMAfc9h-44" value="" style="endArrow=classic;html=1;rounded=0;entryX=0;entryY=0.5;entryDx=0;entryDy=0;exitX=1;exitY=0.5;exitDx=0;exitDy=0;" edge="1" parent="1" source="xeF10_SFYfUYEAMAfc9h-29" target="xeF10_SFYfUYEAMAfc9h-40">
          <mxGeometry width="50" height="50" relative="1" as="geometry">
            <mxPoint x="-570" y="-450" as="sourcePoint" />
            <mxPoint x="-520" y="-500" as="targetPoint" />
          </mxGeometry>
        </mxCell>
        <mxCell id="xeF10_SFYfUYEAMAfc9h-46" value="" style="endArrow=classic;html=1;rounded=0;entryX=0;entryY=0.5;entryDx=0;entryDy=0;exitX=1;exitY=0.5;exitDx=0;exitDy=0;" edge="1" parent="1" source="xeF10_SFYfUYEAMAfc9h-40" target="xeF10_SFYfUYEAMAfc9h-35">
          <mxGeometry width="50" height="50" relative="1" as="geometry">
            <mxPoint x="-500" y="-490" as="sourcePoint" />
            <mxPoint x="-450" y="-540" as="targetPoint" />
          </mxGeometry>
        </mxCell>
        <mxCell id="xeF10_SFYfUYEAMAfc9h-47" value="Modulo Facturcion" style="rounded=1;whiteSpace=wrap;html=1;" vertex="1" parent="1">
          <mxGeometry x="-114" y="-730" width="96" height="60" as="geometry" />
        </mxCell>
        <mxCell id="xeF10_SFYfUYEAMAfc9h-48" value="" style="endArrow=classic;html=1;rounded=0;entryX=0;entryY=0.5;entryDx=0;entryDy=0;exitX=1;exitY=0.5;exitDx=0;exitDy=0;" edge="1" parent="1" source="xeF10_SFYfUYEAMAfc9h-35" target="xeF10_SFYfUYEAMAfc9h-47">
          <mxGeometry width="50" height="50" relative="1" as="geometry">
            <mxPoint x="-330" y="-560" as="sourcePoint" />
            <mxPoint x="-280" y="-610" as="targetPoint" />
          </mxGeometry>
        </mxCell>
        <mxCell id="xeF10_SFYfUYEAMAfc9h-49" value="Sistema Interno de Clientes" style="rounded=1;whiteSpace=wrap;html=1;" vertex="1" parent="1">
          <mxGeometry x="-103" y="-1040" width="95" height="60" as="geometry" />
        </mxCell>
        <mxCell id="xeF10_SFYfUYEAMAfc9h-50" value="Web Services" style="rounded=1;whiteSpace=wrap;html=1;" vertex="1" parent="1">
          <mxGeometry x="-120" y="-850" width="95" height="60" as="geometry" />
        </mxCell>
        <mxCell id="xeF10_SFYfUYEAMAfc9h-51" value="" style="endArrow=classic;html=1;rounded=0;exitX=0.417;exitY=1.012;exitDx=0;exitDy=0;exitPerimeter=0;entryX=0.5;entryY=0;entryDx=0;entryDy=0;" edge="1" parent="1" source="xeF10_SFYfUYEAMAfc9h-49" target="xeF10_SFYfUYEAMAfc9h-50">
          <mxGeometry width="50" height="50" relative="1" as="geometry">
            <mxPoint x="-20" y="-920" as="sourcePoint" />
            <mxPoint x="30" y="-970" as="targetPoint" />
          </mxGeometry>
        </mxCell>
        <mxCell id="xeF10_SFYfUYEAMAfc9h-52" value="" style="endArrow=classic;html=1;rounded=0;exitX=0.5;exitY=1;exitDx=0;exitDy=0;entryX=0.75;entryY=0;entryDx=0;entryDy=0;" edge="1" parent="1" source="xeF10_SFYfUYEAMAfc9h-13" target="xeF10_SFYfUYEAMAfc9h-35">
          <mxGeometry width="50" height="50" relative="1" as="geometry">
            <mxPoint x="-210" y="-930" as="sourcePoint" />
            <mxPoint x="-160" y="-980" as="targetPoint" />
          </mxGeometry>
        </mxCell>
        <mxCell id="xeF10_SFYfUYEAMAfc9h-53" value="" style="endArrow=classic;html=1;rounded=0;entryX=1;entryY=0;entryDx=0;entryDy=0;exitX=0;exitY=1;exitDx=0;exitDy=0;" edge="1" parent="1" source="xeF10_SFYfUYEAMAfc9h-50" target="xeF10_SFYfUYEAMAfc9h-35">
          <mxGeometry width="50" height="50" relative="1" as="geometry">
            <mxPoint x="-180" y="-760" as="sourcePoint" />
            <mxPoint x="-130" y="-810" as="targetPoint" />
          </mxGeometry>
        </mxCell>
        <mxCell id="xeF10_SFYfUYEAMAfc9h-54" value="Logica" style="text;html=1;align=center;verticalAlign=middle;whiteSpace=wrap;rounded=0;" vertex="1" parent="1">
          <mxGeometry x="-427.87" y="-910" width="60" height="30" as="geometry" />
        </mxCell>
        <mxCell id="xeF10_SFYfUYEAMAfc9h-55" value="" style="rounded=0;whiteSpace=wrap;html=1;" vertex="1" parent="1">
          <mxGeometry x="-797.38" y="-620" width="795.75" height="180" as="geometry" />
        </mxCell>
        <mxCell id="xeF10_SFYfUYEAMAfc9h-56" value="Persistencia" style="text;html=1;align=center;verticalAlign=middle;whiteSpace=wrap;rounded=0;" vertex="1" parent="1">
          <mxGeometry x="-429.5" y="-609" width="60" height="30" as="geometry" />
        </mxCell>
        <mxCell id="xeF10_SFYfUYEAMAfc9h-57" value="Incidente" style="rounded=1;whiteSpace=wrap;html=1;" vertex="1" parent="1">
          <mxGeometry x="-230.01" y="-510" width="96" height="40" as="geometry" />
        </mxCell>
        <mxCell id="xeF10_SFYfUYEAMAfc9h-58" value="Cliente" style="rounded=1;whiteSpace=wrap;html=1;" vertex="1" parent="1">
          <mxGeometry x="-340.01" y="-590" width="96" height="30" as="geometry" />
        </mxCell>
        <mxCell id="xeF10_SFYfUYEAMAfc9h-59" value="Usuarios" style="rounded=1;whiteSpace=wrap;html=1;" vertex="1" parent="1">
          <mxGeometry x="-447.51" y="-510" width="96" height="40" as="geometry" />
        </mxCell>
        <mxCell id="xeF10_SFYfUYEAMAfc9h-60" value="Usuarios" style="rounded=1;whiteSpace=wrap;html=1;" vertex="1" parent="1">
          <mxGeometry x="-340.01" y="-510" width="96" height="40" as="geometry" />
        </mxCell>
        <mxCell id="xeF10_SFYfUYEAMAfc9h-61" value="" style="endArrow=classic;html=1;rounded=0;entryX=0.5;entryY=0;entryDx=0;entryDy=0;exitX=0.5;exitY=1;exitDx=0;exitDy=0;" edge="1" parent="1" source="xeF10_SFYfUYEAMAfc9h-35" target="xeF10_SFYfUYEAMAfc9h-58">
          <mxGeometry width="50" height="50" relative="1" as="geometry">
            <mxPoint x="-490" y="-550" as="sourcePoint" />
            <mxPoint x="-440" y="-600" as="targetPoint" />
          </mxGeometry>
        </mxCell>
        <mxCell id="xeF10_SFYfUYEAMAfc9h-62" value="" style="endArrow=classic;html=1;rounded=0;entryX=0.5;entryY=0;entryDx=0;entryDy=0;" edge="1" parent="1" target="xeF10_SFYfUYEAMAfc9h-57">
          <mxGeometry width="50" height="50" relative="1" as="geometry">
            <mxPoint x="-270.01" y="-561" as="sourcePoint" />
            <mxPoint x="-340.01" y="-540" as="targetPoint" />
          </mxGeometry>
        </mxCell>
        <mxCell id="xeF10_SFYfUYEAMAfc9h-63" value="" style="endArrow=classic;html=1;rounded=0;entryX=0.5;entryY=0;entryDx=0;entryDy=0;exitX=0.5;exitY=1;exitDx=0;exitDy=0;" edge="1" parent="1" source="xeF10_SFYfUYEAMAfc9h-58" target="xeF10_SFYfUYEAMAfc9h-60">
          <mxGeometry width="50" height="50" relative="1" as="geometry">
            <mxPoint x="-260.01" y="-560" as="sourcePoint" />
            <mxPoint x="-400.01" y="-540" as="targetPoint" />
          </mxGeometry>
        </mxCell>
        <mxCell id="xeF10_SFYfUYEAMAfc9h-64" value="" style="endArrow=classic;html=1;rounded=0;exitX=0.25;exitY=1;exitDx=0;exitDy=0;entryX=0.5;entryY=0;entryDx=0;entryDy=0;" edge="1" parent="1" source="xeF10_SFYfUYEAMAfc9h-58" target="xeF10_SFYfUYEAMAfc9h-59">
          <mxGeometry width="50" height="50" relative="1" as="geometry">
            <mxPoint x="69.99" y="-640" as="sourcePoint" />
            <mxPoint x="-440.01" y="-530" as="targetPoint" />
          </mxGeometry>
        </mxCell>
      </root>
    </mxGraphModel>
  </diagram>
</mxfile>
